<svg xmlns="http://www.w3.org/2000/svg">
    <g id="logo">
        <path  d="M27.0534 13.9394C25.8826 10.9194 23.7009 8.39886 20.88 6.80714C18.0591 5.21542 14.7736 4.65104 11.5832 5.21018C8.39288 5.76931 5.4951 7.41736 3.38364 9.87351C1.27218 12.3297 0.0776728 15.4419 0.00365596 18.6801C-0.0703609 21.9182 0.980689 25.0818 2.97772 27.6319C4.97475 30.1819 7.7942 31.9607 10.9557 32.665C14.1171 33.3693 17.425 32.9557 20.3157 31.4945C23.2063 30.0333 25.5009 27.6151 26.8085 24.6517L14 19L27.0534 13.9394Z" fill="#D3F85A"/>
        <circle cx="6" cy="19" r="2" fill="#090F1D"/>
        <path d="M58.208 64.144C57.632 64.592 56.5227 65.0933 54.88 65.648C53.2587 66.2027 51.4773 66.48 49.536 66.48C45.8453 66.48 42.816 65.3387 40.448 63.056C38.1013 60.7733 36.928 57.8933 36.928 54.416C36.928 50.9387 38.1653 48.016 40.64 45.648C43.1147 43.28 46.2293 42.096 49.984 42.096C52.6293 42.096 55.328 42.5547 58.08 43.472L58.72 49.008L58.432 49.104C56.7467 46.7573 55.2853 45.1147 54.048 44.176C52.8107 43.2373 51.36 42.768 49.696 42.768C48.3307 42.768 47.136 43.056 46.112 43.632C45.1093 44.1867 44.3093 44.9973 43.712 46.064C43.1147 47.1307 42.6773 48.3573 42.4 49.744C42.1227 51.1093 41.984 52.6667 41.984 54.416C41.984 57.936 42.624 60.72 43.904 62.768C45.184 64.7947 47.072 65.808 49.568 65.808C51.5307 65.808 53.1733 65.168 54.496 63.888C55.8187 62.608 57.1733 60.6347 58.56 57.968L58.848 58.064L58.208 64.144ZM61.7853 66V65.936C62.2759 64.336 62.5213 62.3733 62.5213 60.048V56.336C62.5213 54.5013 62.0199 52.976 61.0173 51.76V51.696L66.4893 49.936V53.84H66.5213C66.6279 53.7333 66.8946 53.4347 67.3213 52.944C67.7479 52.4533 68.0786 52.0907 68.3133 51.856C68.5693 51.6213 68.8999 51.3333 69.3053 50.992C69.7319 50.6507 70.1586 50.416 70.5853 50.288C71.0119 50.1387 71.4493 50.0747 71.8973 50.096L71.6093 54.672H71.4493C71.1293 54.3093 70.6386 53.9893 69.9773 53.712C69.3373 53.4347 68.8146 53.296 68.4093 53.296C67.8546 53.296 67.2573 53.68 66.6173 54.448V60.048C66.6173 62.6507 66.8626 64.6133 67.3533 65.936V66H61.7853ZM80.506 50.672C79.5033 50.672 78.714 51.1733 78.138 52.176C77.5833 53.1787 77.2633 54.4587 77.178 56.016L83.066 55.888V55.152C83.066 52.1653 82.2127 50.672 80.506 50.672ZM87.13 61.584C86.682 63.056 85.882 64.24 84.73 65.136C83.5993 66.032 82.1913 66.48 80.506 66.48C78.2873 66.48 76.4847 65.7333 75.098 64.24C73.7327 62.7253 73.05 60.8373 73.05 58.576C73.05 56.1013 73.8073 54.0747 75.322 52.496C76.8367 50.896 78.618 50.096 80.666 50.096C82.6073 50.096 84.1753 50.7787 85.37 52.144C86.586 53.488 87.1727 54.9707 87.13 56.592L77.178 56.56V56.656C77.178 58.96 77.658 60.656 78.618 61.744C79.5993 62.8107 80.9327 63.344 82.618 63.344C84.4527 63.344 85.8927 62.7253 86.938 61.488L87.13 61.584ZM94.6895 64.272C95.4788 64.272 96.1615 64.0587 96.7375 63.632V58.608C93.8788 59.3333 92.4495 60.5387 92.4495 62.224C92.4495 62.864 92.6415 63.3653 93.0255 63.728C93.4308 64.0907 93.9855 64.272 94.6895 64.272ZM99.8415 66.416C98.9882 66.416 98.3055 66.2133 97.7935 65.808C97.2815 65.4027 96.9615 64.8587 96.8335 64.176C95.6175 65.712 94.0922 66.48 92.2575 66.48C91.2335 66.48 90.3908 66.2347 89.7295 65.744C89.0895 65.2533 88.7695 64.5173 88.7695 63.536C88.7695 60.8907 91.4255 59.056 96.7375 58.032V55.216C96.7375 54.2773 96.5135 53.584 96.0655 53.136C95.6175 52.688 94.8388 52.464 93.7295 52.464C92.1722 52.464 90.7748 52.8587 89.5375 53.648L89.3775 53.424C91.1268 51.2053 93.4308 50.096 96.2895 50.096C97.8682 50.096 99.0202 50.4587 99.7455 51.184C100.471 51.9093 100.834 52.88 100.834 54.096V62.8C100.834 63.7387 101.271 64.208 102.146 64.208C102.636 64.208 103.106 64.0373 103.554 63.696L103.618 63.792C102.764 65.5413 101.506 66.416 99.8415 66.416ZM109.8 66.48C107.155 66.48 105.832 65.104 105.832 62.352V51.216H104.072V50.992L109.608 46.928H109.928V50.576H113.928V51.216H109.928V62.224C109.928 63.8667 110.686 64.688 112.2 64.688C112.542 64.688 112.872 64.6453 113.192 64.56C113.512 64.4747 113.747 64.4 113.896 64.336C114.046 64.2507 114.142 64.1867 114.184 64.144L114.28 64.24C113.32 65.7333 111.827 66.48 109.8 66.48ZM120.96 44.976C120.96 45.616 120.726 46.16 120.256 46.608C119.808 47.056 119.264 47.28 118.624 47.28C117.984 47.28 117.44 47.056 116.992 46.608C116.544 46.16 116.32 45.616 116.32 44.976C116.32 44.3573 116.544 43.824 116.992 43.376C117.44 42.9067 117.984 42.672 118.624 42.672C119.264 42.672 119.808 42.9067 120.256 43.376C120.726 43.824 120.96 44.3573 120.96 44.976ZM116.128 65.936C116.64 64.0373 116.896 62.0747 116.896 60.048V56.432C116.896 54.5547 116.384 53.04 115.36 51.888V51.696L120.96 49.936V60.048C120.96 62.6293 121.206 64.592 121.696 65.936V66H116.128V65.936ZM124.895 54.864C124.127 52.9013 123.369 51.4933 122.623 50.64V50.576H129.247V50.64C128.991 51.0453 128.841 51.5893 128.799 52.272C128.777 52.9547 128.927 53.776 129.247 54.736L131.647 61.072L133.951 55.344C134.207 54.6613 134.345 53.9893 134.367 53.328C134.388 52.6453 134.335 52.1013 134.207 51.696C134.079 51.2693 133.919 50.9173 133.727 50.64V50.576H137.407V50.64C136.404 51.728 135.529 53.1787 134.783 54.992L130.239 66.288H129.407L124.895 54.864ZM144.819 50.672C143.816 50.672 143.027 51.1733 142.451 52.176C141.896 53.1787 141.576 54.4587 141.491 56.016L147.379 55.888V55.152C147.379 52.1653 146.525 50.672 144.819 50.672ZM151.443 61.584C150.995 63.056 150.195 64.24 149.043 65.136C147.912 66.032 146.504 66.48 144.819 66.48C142.6 66.48 140.797 65.7333 139.411 64.24C138.045 62.7253 137.363 60.8373 137.363 58.576C137.363 56.1013 138.12 54.0747 139.635 52.496C141.149 50.896 142.931 50.096 144.979 50.096C146.92 50.096 148.488 50.7787 149.683 52.144C150.899 53.488 151.485 54.9707 151.443 56.592L141.491 56.56V56.656C141.491 58.96 141.971 60.656 142.931 61.744C143.912 62.8107 145.245 63.344 146.931 63.344C148.765 63.344 150.205 62.7253 151.251 61.488L151.443 61.584Z" fill="white"/>
        <path d="M159.002 64.272C159.791 64.272 160.474 64.0587 161.05 63.632V58.608C158.191 59.3333 156.762 60.5387 156.762 62.224C156.762 62.864 156.954 63.3653 157.338 63.728C157.743 64.0907 158.298 64.272 159.002 64.272ZM164.154 66.416C163.301 66.416 162.618 66.2133 162.106 65.808C161.594 65.4027 161.274 64.8587 161.146 64.176C159.93 65.712 158.405 66.48 156.57 66.48C155.546 66.48 154.703 66.2347 154.042 65.744C153.402 65.2533 153.082 64.5173 153.082 63.536C153.082 60.8907 155.738 59.056 161.05 58.032V55.216C161.05 54.2773 160.826 53.584 160.378 53.136C159.93 52.688 159.151 52.464 158.042 52.464C156.485 52.464 155.087 52.8587 153.85 53.648L153.69 53.424C155.439 51.2053 157.743 50.096 160.602 50.096C162.181 50.096 163.333 50.4587 164.058 51.184C164.783 51.9093 165.146 52.88 165.146 54.096V62.8C165.146 63.7387 165.583 64.208 166.458 64.208C166.949 64.208 167.418 64.0373 167.866 63.696L167.93 63.792C167.077 65.5413 165.818 66.416 164.154 66.416ZM169.16 66V65.936C169.651 64.336 169.896 62.3733 169.896 60.048V56.336C169.896 54.5013 169.395 52.976 168.392 51.76V51.696L173.864 49.936V53.84H173.896C174.003 53.7333 174.27 53.4347 174.696 52.944C175.123 52.4533 175.454 52.0907 175.688 51.856C175.944 51.6213 176.275 51.3333 176.68 50.992C177.107 50.6507 177.534 50.416 177.96 50.288C178.387 50.1387 178.824 50.0747 179.272 50.096L178.984 54.672H178.824C178.504 54.3093 178.014 53.9893 177.352 53.712C176.712 53.4347 176.19 53.296 175.784 53.296C175.23 53.296 174.632 53.68 173.992 54.448V60.048C173.992 62.6507 174.238 64.6133 174.728 65.936V66H169.16ZM186.238 66.48C183.592 66.48 182.27 65.104 182.27 62.352V51.216H180.51V50.992L186.046 46.928H186.366V50.576H190.366V51.216H186.366V62.224C186.366 63.8667 187.123 64.688 188.638 64.688C188.979 64.688 189.31 64.6453 189.63 64.56C189.95 64.4747 190.184 64.4 190.334 64.336C190.483 64.2507 190.579 64.1867 190.622 64.144L190.718 64.24C189.758 65.7333 188.264 66.48 186.238 66.48Z" fill="#D3F85A"/>
    </g>

    <g id="star">
        <path d="M17.5 0L22.2266 12.7734L35 17.5L22.2266 22.2266L17.5 35L12.7734 22.2266L0 17.5L12.7734 12.7734L17.5 0Z" fill="white"/>
    </g>

    <g id="clock">
        <path d="M22 12.5C22 18.02 17.52 22.5 12 22.5C6.48 22.5 2 18.02 2 12.5C2 6.98 6.48 2.5 12 2.5C17.52 2.5 22 6.98 22 12.5Z" stroke="white" stroke-width="1.5" stroke-linecap="round" stroke-linejoin="round"/>
        <path d="M15.71 15.68L12.61 13.83C12.07 13.51 11.63 12.74 11.63 12.11V8.01001" stroke="white" stroke-width="1.5" stroke-linecap="round" stroke-linejoin="round"/>
    </g>

    <g id="ethereum">
        <path d="M6.90001 9.6L11.7 7.5C11.9 7.4 12.1 7.4 12.4 7.5L17.2 9.6C17.6 9.8 18 9.3 17.7 8.9L12.7 2.8C12.4 2.4 11.8 2.4 11.5 2.8L6.50001 8.9C6.10001 9.3 6.50001 9.8 6.90001 9.6Z" stroke="white" stroke-width="1.5" stroke-miterlimit="10" stroke-linecap="round" stroke-linejoin="round"/>
        <path d="M6.90001 15.4L11.7 17.5C11.9 17.6 12.1 17.6 12.4 17.5L17.2 15.4C17.6 15.2 18 15.7 17.7 16.1L12.7 22.2C12.4 22.6 11.8 22.6 11.5 22.2L6.50001 16.1C6.10001 15.7 6.50001 15.2 6.90001 15.4Z" stroke="white" stroke-width="1.5" stroke-miterlimit="10" stroke-linecap="round" stroke-linejoin="round"/>
        <path d="M12 9.8999L6.8 12.4999L12 15.0999L17.2 12.4999L12 9.8999Z" stroke="white" stroke-width="1.5" stroke-miterlimit="10" stroke-linecap="round" stroke-linejoin="round"/>
    </g>

    <!--    socials-->
    <g id="facebook">
        <path d="M21.2273 0H3.77273C1.96525 0 0.5 1.46525 0.5 3.27273V20.7273C0.5 22.5347 1.96525 24 3.77273 24H21.2273C23.0347 24 24.5 22.5347 24.5 20.7273V3.27273C24.5 1.46525 23.0347 0 21.2273 0Z" fill="currentColor"/>
        <path d="M16.3018 10.5791L16.0605 12.6695C16.0505 12.7649 16.0058 12.8533 15.9349 12.9179C15.864 12.9825 15.7718 13.0189 15.6759 13.02H13.4941L13.4832 19.2177C13.4839 19.2912 13.4557 19.362 13.4047 19.4148C13.3537 19.4676 13.2839 19.4982 13.2105 19.5H11C10.9633 19.5 10.9269 19.4926 10.8931 19.4782C10.8592 19.4639 10.8287 19.4428 10.8032 19.4163C10.7777 19.3898 10.7579 19.3584 10.7448 19.3241C10.7318 19.2897 10.7258 19.2531 10.7273 19.2164V13.02H9.09093C9.03953 13.0195 8.98875 13.0088 8.94147 12.9887C8.89419 12.9685 8.85135 12.9392 8.81538 12.9025C8.77942 12.8658 8.75105 12.8223 8.73187 12.7746C8.7127 12.7269 8.70311 12.6759 8.70365 12.6245L8.69547 10.5341C8.69475 10.4825 8.7042 10.4313 8.72327 10.3834C8.74234 10.3355 8.77067 10.2918 8.80663 10.2548C8.84259 10.2178 8.88549 10.1883 8.93287 10.1679C8.98024 10.1475 9.03117 10.1366 9.08275 10.1359H10.7273V8.11773C10.7273 5.775 12.1182 4.5 14.1582 4.5H15.83C15.8817 4.50053 15.9328 4.51127 15.9803 4.53158C16.0279 4.5519 16.0709 4.5814 16.107 4.6184C16.1431 4.65539 16.1716 4.69915 16.1907 4.74716C16.2099 4.79517 16.2194 4.84649 16.2187 4.89818V6.65727C16.2194 6.70896 16.2099 6.76028 16.1907 6.8083C16.1716 6.85631 16.1431 6.90007 16.107 6.93706C16.0709 6.97405 16.0279 7.00355 15.9803 7.02387C15.9328 7.04419 15.8817 7.05492 15.83 7.05545H14.8046C13.6959 7.05545 13.4805 7.60091 13.4805 8.38909V10.1359H15.9173C15.9727 10.1366 16.0274 10.149 16.0776 10.1723C16.1279 10.1957 16.1727 10.2294 16.209 10.2712C16.2453 10.3131 16.2724 10.3622 16.2884 10.4152C16.3044 10.4683 16.309 10.5241 16.3018 10.5791Z" fill="#090F1D"/>
    </g>

    <g id="telegram">
        <path d="M21.2273 0H3.77273C1.96525 0 0.5 1.46525 0.5 3.27273V20.7273C0.5 22.5347 1.96525 24 3.77273 24H21.2273C23.0347 24 24.5 22.5347 24.5 20.7273V3.27273C24.5 1.46525 23.0347 0 21.2273 0Z" fill="currentColor"/>
        <path d="M19.0373 6.20455L18.7891 6.29455L5.31912 11.1477C5.22366 11.1772 5.1407 11.2376 5.08323 11.3193C5.02576 11.4011 4.99704 11.4996 5.00156 11.5994C5.00608 11.6992 5.0436 11.7947 5.10822 11.8709C5.17285 11.9471 5.26093 11.9997 5.35866 12.0205L8.84548 12.975L9.49594 14.8841L10.1464 16.7932C10.1838 16.8868 10.2434 16.9698 10.3201 17.0351C10.3969 17.1004 10.4884 17.146 10.5868 17.1679C10.6851 17.1898 10.7874 17.1874 10.8846 17.1608C10.9818 17.1342 11.071 17.0843 11.1446 17.0155L12.9459 15.3136L16.4832 17.7123C16.9155 18.0068 17.5318 17.7886 17.6423 17.3032L19.985 6.95182C20.0996 6.43909 19.5596 6.01773 19.0373 6.20455ZM17.3178 8.50227L11.2318 13.4768L10.9455 13.7114C10.8826 13.7612 10.8415 13.8336 10.8309 13.9132L10.7668 14.4423L10.5909 15.9286C10.5924 15.9467 10.5866 15.9646 10.5748 15.9784C10.5631 15.9923 10.5463 16.0008 10.5282 16.0023C10.5101 16.0037 10.4922 15.9979 10.4784 15.9862C10.4646 15.9744 10.456 15.9576 10.4546 15.9395L9.95957 14.4545L9.44821 12.9341C9.42658 12.8657 9.42945 12.792 9.45634 12.7255C9.48322 12.6591 9.53242 12.6041 9.59548 12.57L15.9282 8.94L17.12 8.25818C17.2932 8.15727 17.4705 8.37682 17.3178 8.50227Z" fill="#090F1D"/>
    </g>

    <g id="twitter">
        <path d="M21.2273 0H3.77273C1.96525 0 0.5 1.46525 0.5 3.27273V20.7273C0.5 22.5347 1.96525 24 3.77273 24H21.2273C23.0347 24 24.5 22.5347 24.5 20.7273V3.27273C24.5 1.46525 23.0347 0 21.2273 0Z" fill="currentColor"/>
        <path d="M19.9714 7.46047C19.6154 7.9923 19.182 8.468 18.6855 8.87183C18.6211 8.92305 18.5691 8.98817 18.5335 9.06232C18.4978 9.13647 18.4794 9.21773 18.4796 9.30001V9.35047C18.4739 10.4221 18.2772 11.4842 17.8987 12.4868C17.5087 13.5377 16.9296 14.5083 16.19 15.3505C15.2006 16.4784 13.9261 17.3196 12.5 17.7859C11.5603 18.0909 10.5779 18.2437 9.59002 18.2386C8.02545 18.237 6.48908 17.8221 5.13639 17.0359C5.08795 17.0084 5.04986 16.9658 5.02794 16.9145C5.00603 16.8633 5.00149 16.8063 5.01502 16.7523C5.02874 16.6988 5.05996 16.6515 5.10371 16.6179C5.14746 16.5843 5.20122 16.5663 5.25639 16.5668H5.63002C6.81924 16.5666 7.98126 16.211 8.96684 15.5455C8.37933 15.4494 7.8296 15.1935 7.37788 14.8058C6.92616 14.4181 6.58989 13.9135 6.40593 13.3473C6.39691 13.3194 6.3953 13.2896 6.40126 13.2609C6.40723 13.2321 6.42056 13.2055 6.43996 13.1835C6.45935 13.1615 6.48414 13.1449 6.51189 13.1353C6.53963 13.1258 6.56938 13.1237 6.5982 13.1291C6.77802 13.1633 6.96063 13.1806 7.14366 13.1809H7.21184C6.6424 12.9193 6.16097 12.4982 5.82579 11.9687C5.49061 11.4392 5.31604 10.8239 5.3232 10.1973C5.32359 10.1679 5.33158 10.1391 5.34639 10.1137C5.36119 10.0883 5.38232 10.0672 5.40771 10.0523C5.4331 10.0375 5.46189 10.0295 5.49129 10.0291C5.52068 10.0287 5.54969 10.0359 5.57548 10.05C5.80652 10.179 6.05433 10.2754 6.31184 10.3364C5.80191 9.83224 5.47371 9.17313 5.3787 8.46239C5.28369 7.75165 5.42724 7.02948 5.78684 6.4091C5.80064 6.38624 5.81965 6.36697 5.84232 6.35287C5.865 6.33877 5.89069 6.33024 5.91729 6.32798C5.9439 6.32572 5.97066 6.32979 5.99539 6.33986C6.02012 6.34993 6.04211 6.36572 6.05957 6.38592C6.77375 7.26878 7.65803 7.99916 8.6599 8.53371C9.66178 9.06826 10.7608 9.39609 11.8918 9.49774H11.9041C11.9209 9.49719 11.9373 9.49329 11.9526 9.48626C11.9678 9.47923 11.9815 9.46923 11.9927 9.45683C12.0036 9.44443 12.0118 9.4299 12.0167 9.41416C12.0216 9.39843 12.0232 9.38185 12.0214 9.36547C11.9792 8.96945 12.005 8.56913 12.0978 8.18183C12.179 7.84276 12.3174 7.51998 12.5068 7.22728C12.9045 6.60277 13.5102 6.13905 14.2168 5.91819C14.5483 5.81427 14.8936 5.76094 15.2409 5.76001C16.0287 5.75923 16.7896 6.04633 17.3805 6.56728C17.4558 6.63419 17.5525 6.67193 17.6532 6.67365C17.6864 6.6731 17.7193 6.66852 17.7514 6.66001C18.3069 6.51947 18.8392 6.29948 19.3318 6.00683C19.3615 5.9897 19.3956 5.9819 19.4298 5.98444C19.4639 5.98699 19.4965 5.99977 19.5233 6.02111C19.5501 6.04245 19.5698 6.07137 19.58 6.10409C19.5901 6.13681 19.5901 6.17182 19.58 6.20456C19.4147 6.72067 19.1221 7.18683 18.7291 7.56001C19.0836 7.47535 19.4295 7.3585 19.7627 7.21092C19.7963 7.19595 19.8339 7.19235 19.8697 7.20065C19.9056 7.20895 19.9377 7.2287 19.9613 7.25692C19.9849 7.28513 19.9986 7.32027 20.0005 7.357C20.0023 7.39373 19.9921 7.43006 19.9714 7.46047Z" fill="#090F1D"/>
    </g>

    <g id="linkedin">
        <path d="M21.2273 0H3.77273C1.96525 0 0.5 1.46525 0.5 3.27273V20.7273C0.5 22.5347 1.96525 24 3.77273 24H21.2273C23.0347 24 24.5 22.5347 24.5 20.7273V3.27273C24.5 1.46525 23.0347 0 21.2273 0Z" fill="currentColor"/>
        <path d="M9.14548 6.54545C9.14548 6.95001 9.02551 7.34547 8.80075 7.68185C8.576 8.01822 8.25654 8.28039 7.88278 8.43521C7.50902 8.59002 7.09775 8.63053 6.70097 8.55161C6.30419 8.47268 5.93973 8.27787 5.65367 7.99181C5.3676 7.70575 5.17279 7.34128 5.09387 6.9445C5.01494 6.54772 5.05545 6.13645 5.21027 5.76269C5.36508 5.38894 5.62725 5.06948 5.96363 4.84472C6.3 4.61996 6.69547 4.5 7.10002 4.5C7.64251 4.5 8.16278 4.7155 8.54638 5.0991C8.92997 5.4827 9.14548 6.00297 9.14548 6.54545ZM8.68184 9.95455V18.9914C8.6822 19.058 8.66938 19.1241 8.64411 19.1858C8.61885 19.2475 8.58164 19.3036 8.53463 19.3509C8.48762 19.3981 8.43172 19.4356 8.37017 19.4612C8.30861 19.4868 8.2426 19.5 8.17593 19.5H6.02002C5.95335 19.5002 5.88731 19.4872 5.82568 19.4618C5.76406 19.4363 5.70806 19.399 5.66092 19.3518C5.61378 19.3047 5.57642 19.2487 5.551 19.1871C5.52557 19.1254 5.51257 19.0594 5.51275 18.9927V9.95455C5.51275 9.82001 5.56619 9.69098 5.66133 9.59585C5.75646 9.50072 5.88548 9.44727 6.02002 9.44727H8.17593C8.31023 9.44763 8.43891 9.50124 8.53375 9.59633C8.62858 9.69142 8.68184 9.82024 8.68184 9.95455ZM19.9509 14.6591V19.0336C19.9511 19.0949 19.9392 19.1557 19.9158 19.2123C19.8924 19.269 19.8581 19.3205 19.8147 19.3638C19.7714 19.4071 19.7199 19.4415 19.6632 19.4649C19.6066 19.4882 19.5459 19.5002 19.4846 19.5H17.1664C17.1051 19.5002 17.0444 19.4882 16.9877 19.4649C16.931 19.4415 16.8796 19.4071 16.8362 19.3638C16.7929 19.3205 16.7585 19.269 16.7352 19.2123C16.7118 19.1557 16.6998 19.0949 16.7 19.0336V14.7941C16.7 14.1614 16.8855 12.0232 15.0459 12.0232C13.6209 12.0232 13.3305 13.4864 13.2732 14.1436V19.0336C13.2732 19.1562 13.225 19.2738 13.139 19.361C13.053 19.4483 12.9362 19.4982 12.8137 19.5H10.5746C10.5134 19.5 10.4528 19.4879 10.3963 19.4645C10.3398 19.441 10.2885 19.4066 10.2453 19.3633C10.2021 19.32 10.1679 19.2686 10.1446 19.212C10.1213 19.1554 10.1094 19.0948 10.1096 19.0336V9.915C10.1094 9.85382 10.1213 9.79321 10.1446 9.73663C10.1679 9.68006 10.2021 9.62864 10.2453 9.58531C10.2885 9.54199 10.3398 9.50762 10.3963 9.48416C10.4528 9.46071 10.5134 9.44864 10.5746 9.44864H12.8137C12.9373 9.44864 13.056 9.49777 13.1434 9.58523C13.2309 9.67269 13.28 9.79131 13.28 9.915V10.7032C13.8091 9.90955 14.5932 9.29727 16.2664 9.29727C19.9727 9.29727 19.9509 12.7582 19.9509 14.6591Z" fill="#090F1D"/>
    </g>
</svg>